<svg xmlns="http://www.w3.org/2000/svg" xmlns:xlink="http://www.w3.org/1999/xlink" contentStyleType="text/css" data-diagram-type="ACTIVITY" height="626px" preserveAspectRatio="none" style="width:597px;height:626px;background:#FFFFFF;" version="1.1" viewBox="0 0 597 626" width="597px" zoomAndPan="magnify"><title>Diagrama de Decisi&#243;n - Reconocimiento de Cartas</title><defs/><g><g class="title" data-source-line="1"><text fill="#000000" font-family="sans-serif" font-size="14" font-weight="bold" lengthAdjust="spacing" textLength="394.4268" x="100.1733" y="32.9951">Diagrama de Decisi&#243;n - Reconocimiento de Cartas</text></g><ellipse cx="370.1223" cy="57.2969" fill="#222222" rx="10" ry="10" style="stroke:#222222;stroke-width:1;"/><rect fill="#F1F1F1" height="33.9688" rx="12.5" ry="12.5" style="stroke:#181818;stroke-width:0.5;" width="180.1895" x="280.0276" y="87.2969"/><text fill="#000000" font-family="sans-serif" font-size="12" lengthAdjust="spacing" textLength="160.1895" x="290.0276" y="108.4355">Capturar frame de c&#225;mara</text><polygon fill="#F1F1F1" points="308.9805,141.2656,431.2642,141.2656,443.2642,153.2656,431.2642,165.2656,308.9805,165.2656,296.9805,153.2656,308.9805,141.2656" style="stroke:#181818;stroke-width:0.5;"/><text fill="#000000" font-family="sans-serif" font-size="11" lengthAdjust="spacing" textLength="122.2837" x="308.9805" y="157.0737">&#191;Hay contorno v&#225;lido?</text><text fill="#000000" font-family="sans-serif" font-size="11" lengthAdjust="spacing" textLength="10.0386" x="286.9419" y="150.6714">S&#237;</text><text fill="#000000" font-family="sans-serif" font-size="11" lengthAdjust="spacing" textLength="14.9585" x="443.2642" y="150.6714">No</text><rect fill="#F1F1F1" height="33.9688" rx="12.5" ry="12.5" style="stroke:#181818;stroke-width:0.5;" width="163.5137" x="144.6411" y="175.2656"/><text fill="#000000" font-family="sans-serif" font-size="12" lengthAdjust="spacing" textLength="143.5137" x="154.6411" y="196.4043">Extraer contorno mayor</text><polygon fill="#F1F1F1" points="173.9465,229.2344,278.8494,229.2344,290.8494,241.2344,278.8494,253.2344,173.9465,253.2344,161.9465,241.2344,173.9465,229.2344" style="stroke:#181818;stroke-width:0.5;"/><text fill="#000000" font-family="sans-serif" font-size="11" lengthAdjust="spacing" textLength="104.9028" x="173.9465" y="245.0425">&#191;Tiene 4 esquinas?</text><text fill="#000000" font-family="sans-serif" font-size="11" lengthAdjust="spacing" textLength="10.0386" x="151.908" y="238.6401">S&#237;</text><text fill="#000000" font-family="sans-serif" font-size="11" lengthAdjust="spacing" textLength="14.9585" x="290.8494" y="238.6401">No</text><rect fill="#F1F1F1" height="33.9688" rx="12.5" ry="12.5" style="stroke:#181818;stroke-width:0.5;" width="193.7832" x="24.5264" y="263.2344"/><text fill="#000000" font-family="sans-serif" font-size="12" lengthAdjust="spacing" textLength="173.7832" x="34.5264" y="284.373">Warp perspective a 200x300</text><rect fill="#F1F1F1" height="33.9688" rx="12.5" ry="12.5" style="stroke:#181818;stroke-width:0.5;" width="187.373" x="27.7314" y="317.2031"/><text fill="#000000" font-family="sans-serif" font-size="12" lengthAdjust="spacing" textLength="167.373" x="37.7314" y="338.3418">Convertir a escala de grises</text><rect fill="#F1F1F1" height="33.9688" rx="12.5" ry="12.5" style="stroke:#181818;stroke-width:0.5;" width="220.8359" x="11" y="371.1719"/><text fill="#000000" font-family="sans-serif" font-size="12" lengthAdjust="spacing" textLength="200.8359" x="21" y="392.3105">Comparar con todas las plantillas</text><rect fill="#F1F1F1" height="33.9688" rx="12.5" ry="12.5" style="stroke:#181818;stroke-width:0.5;" width="129.002" x="56.917" y="425.1406"/><text fill="#000000" font-family="sans-serif" font-size="12" lengthAdjust="spacing" textLength="109.002" x="66.917" y="446.2793">Elegir mejor score</text><rect fill="#F1F1F1" height="33.9688" rx="12.5" ry="12.5" style="stroke:#181818;stroke-width:0.5;" width="156.6348" x="43.1006" y="479.1094"/><text fill="#000000" font-family="sans-serif" font-size="12" lengthAdjust="spacing" textLength="136.6348" x="53.1006" y="500.248">Mostrar nombre y palo</text><rect fill="#F1F1F1" height="33.9688" rx="12.5" ry="12.5" style="stroke:#181818;stroke-width:0.5;" width="159.084" x="251.8359" y="263.2344"/><text fill="#000000" font-family="sans-serif" font-size="12" lengthAdjust="spacing" textLength="139.084" x="261.8359" y="284.373">Descartar (no es carta)</text><polygon fill="#F1F1F1" points="226.3979,519.0781,238.3979,531.0781,226.3979,543.0781,214.3979,531.0781,226.3979,519.0781" style="stroke:#181818;stroke-width:0.5;"/><rect fill="#F1F1F1" height="33.9688" rx="12.5" ry="12.5" style="stroke:#181818;stroke-width:0.5;" width="145.8535" x="440.9199" y="175.2656"/><text fill="#000000" font-family="sans-serif" font-size="12" lengthAdjust="spacing" textLength="125.8535" x="450.9199" y="196.4043">No se encontr&#243; carta</text><polygon fill="#F1F1F1" points="370.1223,549.0781,382.1223,561.0781,370.1223,573.0781,358.1223,561.0781,370.1223,549.0781" style="stroke:#181818;stroke-width:0.5;"/><ellipse cx="370.1223" cy="604.0781" fill="none" rx="11" ry="11" style="stroke:#222222;stroke-width:1;"/><ellipse cx="370.1223" cy="604.0781" fill="#222222" rx="6" ry="6" style="stroke:#222222;stroke-width:1;"/><line style="stroke:#181818;stroke-width:1;" x1="370.1223" x2="370.1223" y1="67.2969" y2="87.2969"/><polygon fill="#181818" points="366.1223,77.2969,370.1223,87.2969,374.1223,77.2969,370.1223,81.2969" style="stroke:#181818;stroke-width:1;"/><line style="stroke:#181818;stroke-width:1;" x1="121.418" x2="121.418" y1="297.2031" y2="317.2031"/><polygon fill="#181818" points="117.418,307.2031,121.418,317.2031,125.418,307.2031,121.418,311.2031" style="stroke:#181818;stroke-width:1;"/><line style="stroke:#181818;stroke-width:1;" x1="121.418" x2="121.418" y1="351.1719" y2="371.1719"/><polygon fill="#181818" points="117.418,361.1719,121.418,371.1719,125.418,361.1719,121.418,365.1719" style="stroke:#181818;stroke-width:1;"/><line style="stroke:#181818;stroke-width:1;" x1="121.418" x2="121.418" y1="405.1406" y2="425.1406"/><polygon fill="#181818" points="117.418,415.1406,121.418,425.1406,125.418,415.1406,121.418,419.1406" style="stroke:#181818;stroke-width:1;"/><line style="stroke:#181818;stroke-width:1;" x1="121.418" x2="121.418" y1="459.1094" y2="479.1094"/><polygon fill="#181818" points="117.418,469.1094,121.418,479.1094,125.418,469.1094,121.418,473.1094" style="stroke:#181818;stroke-width:1;"/><line style="stroke:#181818;stroke-width:1;" x1="161.9465" x2="121.418" y1="241.2344" y2="241.2344"/><line style="stroke:#181818;stroke-width:1;" x1="121.418" x2="121.418" y1="241.2344" y2="263.2344"/><polygon fill="#181818" points="117.418,253.2344,121.418,263.2344,125.418,253.2344,121.418,257.2344" style="stroke:#181818;stroke-width:1;"/><line style="stroke:#181818;stroke-width:1;" x1="290.8494" x2="331.3779" y1="241.2344" y2="241.2344"/><line style="stroke:#181818;stroke-width:1;" x1="331.3779" x2="331.3779" y1="241.2344" y2="263.2344"/><polygon fill="#181818" points="327.3779,253.2344,331.3779,263.2344,335.3779,253.2344,331.3779,257.2344" style="stroke:#181818;stroke-width:1;"/><line style="stroke:#181818;stroke-width:1;" x1="121.418" x2="121.418" y1="513.0781" y2="531.0781"/><line style="stroke:#181818;stroke-width:1;" x1="121.418" x2="214.3979" y1="531.0781" y2="531.0781"/><polygon fill="#181818" points="204.3979,527.0781,214.3979,531.0781,204.3979,535.0781,208.3979,531.0781" style="stroke:#181818;stroke-width:1;"/><line style="stroke:#181818;stroke-width:1;" x1="331.3779" x2="331.3779" y1="297.2031" y2="531.0781"/><line style="stroke:#181818;stroke-width:1;" x1="331.3779" x2="238.3979" y1="531.0781" y2="531.0781"/><polygon fill="#181818" points="248.3979,527.0781,238.3979,531.0781,248.3979,535.0781,244.3979,531.0781" style="stroke:#181818;stroke-width:1;"/><line style="stroke:#181818;stroke-width:1;" x1="226.3979" x2="226.3979" y1="209.2344" y2="229.2344"/><polygon fill="#181818" points="222.3979,219.2344,226.3979,229.2344,230.3979,219.2344,226.3979,223.2344" style="stroke:#181818;stroke-width:1;"/><line style="stroke:#181818;stroke-width:1;" x1="296.9805" x2="226.3979" y1="153.2656" y2="153.2656"/><line style="stroke:#181818;stroke-width:1;" x1="226.3979" x2="226.3979" y1="153.2656" y2="175.2656"/><polygon fill="#181818" points="222.3979,165.2656,226.3979,175.2656,230.3979,165.2656,226.3979,169.2656" style="stroke:#181818;stroke-width:1;"/><line style="stroke:#181818;stroke-width:1;" x1="443.2642" x2="513.8467" y1="153.2656" y2="153.2656"/><line style="stroke:#181818;stroke-width:1;" x1="513.8467" x2="513.8467" y1="153.2656" y2="175.2656"/><polygon fill="#181818" points="509.8467,165.2656,513.8467,175.2656,517.8467,165.2656,513.8467,169.2656" style="stroke:#181818;stroke-width:1;"/><line style="stroke:#181818;stroke-width:1;" x1="226.3979" x2="226.3979" y1="543.0781" y2="561.0781"/><line style="stroke:#181818;stroke-width:1;" x1="226.3979" x2="358.1223" y1="561.0781" y2="561.0781"/><polygon fill="#181818" points="348.1223,557.0781,358.1223,561.0781,348.1223,565.0781,352.1223,561.0781" style="stroke:#181818;stroke-width:1;"/><line style="stroke:#181818;stroke-width:1;" x1="513.8467" x2="513.8467" y1="209.2344" y2="561.0781"/><line style="stroke:#181818;stroke-width:1;" x1="513.8467" x2="382.1223" y1="561.0781" y2="561.0781"/><polygon fill="#181818" points="392.1223,557.0781,382.1223,561.0781,392.1223,565.0781,388.1223,561.0781" style="stroke:#181818;stroke-width:1;"/><line style="stroke:#181818;stroke-width:1;" x1="370.1223" x2="370.1223" y1="121.2656" y2="141.2656"/><polygon fill="#181818" points="366.1223,131.2656,370.1223,141.2656,374.1223,131.2656,370.1223,135.2656" style="stroke:#181818;stroke-width:1;"/><line style="stroke:#181818;stroke-width:1;" x1="370.1223" x2="370.1223" y1="573.0781" y2="593.0781"/><polygon fill="#181818" points="366.1223,583.0781,370.1223,593.0781,374.1223,583.0781,370.1223,587.0781" style="stroke:#181818;stroke-width:1;"/><!--SRC=[PP2nJiD038RtF8N7T42AWAaP6DfAB7G096PpSSjLb_DXkrNxE7q0fZu04danBWbIMt7IIRR-pxz-sxm5Whd7jM2BqEIQd5VVdIBSm3CvZknywoaQz-eCnL2BGYqNnNI6oRQ20giyJZtWkcEBWdNXLr3-V3_Y0RA7iKI6NNSClk672TW7HIXVkgz90VbD5tiJ93cZBHvOwa4SZLvp189x8FtS-eZwtsGmUaD9a4WqaJE_8q2uhQhzNLNLPsZ6SKTYNh9AwZ0CYw_5A-aLrYRibykfmBX1XP1_2XZDXrnUi8j0w-pNqeO5rB7GXVZ4QhrFvFPT20wGCF2eKr22SiaNAypxIFdA0cK-12aCtUIFZurV5TTJqoL3xYdsrvFkD0xKnSYgSVe5]--></g></svg>