<svg xmlns="http://www.w3.org/2000/svg" xmlns:xlink="http://www.w3.org/1999/xlink" contentStyleType="text/css" data-diagram-type="ACTIVITY" height="905px" preserveAspectRatio="none" style="width:1341px;height:905px;background:#FFFFFF;" version="1.1" viewBox="0 0 1341 905" width="1341px" zoomAndPan="magnify"><title>Diagrama de Decisi&#243;n - Clasificaci&#243;n del Palo</title><defs/><g><g class="title" data-source-line="1"><text fill="#000000" font-family="sans-serif" font-size="14" font-weight="bold" lengthAdjust="spacing" textLength="355.1885" x="491.4824" y="32.9951">Diagrama de Decisi&#243;n - Clasificaci&#243;n del Palo</text></g><ellipse cx="735.1395" cy="57.2969" fill="#222222" rx="10" ry="10" style="stroke:#222222;stroke-width:1;"/><rect fill="#F1F1F1" height="33.9688" rx="12.5" ry="12.5" style="stroke:#181818;stroke-width:0.5;" width="181.6309" x="644.3241" y="87.2969"/><text fill="#000000" font-family="sans-serif" font-size="12" lengthAdjust="spacing" textLength="161.6309" x="654.3241" y="108.4355">Extraer ROI (zona s&#237;mbolo)</text><rect fill="#F1F1F1" height="33.9688" rx="12.5" ry="12.5" style="stroke:#181818;stroke-width:0.5;" width="140.6855" x="664.7968" y="141.2656"/><text fill="#000000" font-family="sans-serif" font-size="12" lengthAdjust="spacing" textLength="120.6855" x="674.7968" y="162.4043">Convertir ROI a HSV</text><polygon fill="#F1F1F1" points="650.3219,195.2344,819.9572,195.2344,831.9572,207.2344,819.9572,219.2344,650.3219,219.2344,638.3219,207.2344,650.3219,195.2344" style="stroke:#181818;stroke-width:0.5;"/><text fill="#000000" font-family="sans-serif" font-size="11" lengthAdjust="spacing" textLength="169.6353" x="650.3219" y="211.0425">&#191;ROI contiene dominante roja?</text><text fill="#000000" font-family="sans-serif" font-size="11" lengthAdjust="spacing" textLength="10.0386" x="628.2833" y="204.6401">S&#237;</text><text fill="#000000" font-family="sans-serif" font-size="11" lengthAdjust="spacing" textLength="14.9585" x="831.9572" y="204.6401">No</text><rect fill="#F1F1F1" height="33.9688" rx="12.5" ry="12.5" style="stroke:#181818;stroke-width:0.5;" width="95.3691" x="349.9391" y="229.2344"/><text fill="#000000" font-family="sans-serif" font-size="12" lengthAdjust="spacing" textLength="75.3691" x="359.9391" y="250.373">Es carta roja</text><rect fill="#F1F1F1" height="33.9688" rx="12.5" ry="12.5" style="stroke:#181818;stroke-width:0.5;" width="254.0879" x="270.5797" y="283.2031"/><text fill="#000000" font-family="sans-serif" font-size="12" lengthAdjust="spacing" textLength="234.0879" x="280.5797" y="304.3418">Extraer m&#225;scara roja (dos rangos HSV)</text><rect fill="#F1F1F1" height="33.9688" rx="12.5" ry="12.5" style="stroke:#181818;stroke-width:0.5;" width="248.457" x="273.3951" y="337.1719"/><text fill="#000000" font-family="sans-serif" font-size="12" lengthAdjust="spacing" textLength="228.457" x="283.3951" y="358.3105">Procesar m&#225;scara (morph close/open)</text><polygon fill="#F1F1F1" points="310.483,391.1406,484.7643,391.1406,496.7643,403.1406,484.7643,415.1406,310.483,415.1406,298.483,403.1406,310.483,391.1406" style="stroke:#181818;stroke-width:0.5;"/><text fill="#000000" font-family="sans-serif" font-size="11" lengthAdjust="spacing" textLength="174.2813" x="310.483" y="406.9487">&#191;Se detecta contorno principal?</text><text fill="#000000" font-family="sans-serif" font-size="11" lengthAdjust="spacing" textLength="10.0386" x="288.4445" y="400.5464">S&#237;</text><text fill="#000000" font-family="sans-serif" font-size="11" lengthAdjust="spacing" textLength="14.9585" x="496.7643" y="400.5464">No</text><rect fill="#F1F1F1" height="33.9688" rx="12.5" ry="12.5" style="stroke:#181818;stroke-width:0.5;" width="166.6777" x="135.1599" y="425.1406"/><text fill="#000000" font-family="sans-serif" font-size="12" lengthAdjust="spacing" textLength="146.6777" x="145.1599" y="446.2793">Calcular &#225;rea, per&#237;metro</text><rect fill="#F1F1F1" height="33.9688" rx="12.5" ry="12.5" style="stroke:#181818;stroke-width:0.5;" width="143.3164" x="146.8406" y="479.1094"/><text fill="#000000" font-family="sans-serif" font-size="12" lengthAdjust="spacing" textLength="123.3164" x="156.8406" y="500.248">Calcular circularidad</text><rect fill="#F1F1F1" height="33.9688" rx="12.5" ry="12.5" style="stroke:#181818;stroke-width:0.5;" width="144.0957" x="146.4509" y="533.0781"/><text fill="#000000" font-family="sans-serif" font-size="12" lengthAdjust="spacing" textLength="124.0957" x="156.4509" y="554.2168">Calcular aspect ratio</text><rect fill="#F1F1F1" height="33.9688" rx="12.5" ry="12.5" style="stroke:#181818;stroke-width:0.5;" width="115.7246" x="160.6365" y="587.0469"/><text fill="#000000" font-family="sans-serif" font-size="12" lengthAdjust="spacing" textLength="95.7246" x="170.6365" y="608.1855">Calcular solidity</text><rect fill="#F1F1F1" height="33.9688" rx="12.5" ry="12.5" style="stroke:#181818;stroke-width:0.5;" width="191.0703" x="122.9636" y="641.0156"/><text fill="#000000" font-family="sans-serif" font-size="12" lengthAdjust="spacing" textLength="171.0703" x="132.9636" y="662.1543">Analizar distribuci&#243;n vertical</text><polygon fill="#F1F1F1" points="121.3545,694.9844,315.6431,694.9844,327.6431,706.9844,315.6431,718.9844,121.3545,718.9844,109.3545,706.9844,121.3545,694.9844" style="stroke:#181818;stroke-width:0.5;"/><text fill="#000000" font-family="sans-serif" font-size="11" lengthAdjust="spacing" textLength="194.2886" x="121.3545" y="710.7925">&#191;coraz&#243;n_score &gt; diamante_score?</text><text fill="#000000" font-family="sans-serif" font-size="11" lengthAdjust="spacing" textLength="45.1494" x="64.2051" y="704.3901">Coraz&#243;n</text><text fill="#000000" font-family="sans-serif" font-size="11" lengthAdjust="spacing" textLength="53.7754" x="327.6431" y="704.3901">Diamante</text><rect fill="#F1F1F1" height="33.9688" rx="12.5" ry="12.5" style="stroke:#181818;stroke-width:0.5;" width="176.709" x="11" y="728.9844"/><text fill="#000000" font-family="sans-serif" font-size="12" lengthAdjust="spacing" textLength="156.709" x="21" y="750.123">Clasificar como CORAZ&#211;N</text><rect fill="#F1F1F1" height="33.9688" rx="12.5" ry="12.5" style="stroke:#181818;stroke-width:0.5;" width="179.1348" x="248.0757" y="728.9844"/><text fill="#000000" font-family="sans-serif" font-size="12" lengthAdjust="spacing" textLength="159.1348" x="258.0757" y="750.123">Clasificar como DIAMANTE</text><polygon fill="#F1F1F1" points="218.4988,768.9531,230.4988,780.9531,218.4988,792.9531,206.4988,780.9531,218.4988,768.9531" style="stroke:#181818;stroke-width:0.5;"/><rect fill="#F1F1F1" height="33.9688" rx="12.5" ry="12.5" style="stroke:#181818;stroke-width:0.5;" width="239.0762" x="457.2104" y="425.1406"/><text fill="#000000" font-family="sans-serif" font-size="12" lengthAdjust="spacing" textLength="219.0762" x="467.2104" y="446.2793">Clasificar como DIAMANTE (fallback)</text><polygon fill="#F1F1F1" points="397.6237,798.9531,409.6237,810.9531,397.6237,822.9531,385.6237,810.9531,397.6237,798.9531" style="stroke:#181818;stroke-width:0.5;"/><rect fill="#F1F1F1" height="33.9688" rx="12.5" ry="12.5" style="stroke:#181818;stroke-width:0.5;" width="107.2988" x="1019.006" y="229.2344"/><text fill="#000000" font-family="sans-serif" font-size="12" lengthAdjust="spacing" textLength="87.2988" x="1029.006" y="250.373">Es carta negra</text><rect fill="#F1F1F1" height="33.9688" rx="12.5" ry="12.5" style="stroke:#181818;stroke-width:0.5;" width="252.541" x="946.3849" y="283.2031"/><text fill="#000000" font-family="sans-serif" font-size="12" lengthAdjust="spacing" textLength="232.541" x="956.3849" y="304.3418">Extraer m&#225;scara negra (threshold INV)</text><rect fill="#F1F1F1" height="33.9688" rx="12.5" ry="12.5" style="stroke:#181818;stroke-width:0.5;" width="248.457" x="948.4269" y="337.1719"/><text fill="#000000" font-family="sans-serif" font-size="12" lengthAdjust="spacing" textLength="228.457" x="958.4269" y="358.3105">Procesar m&#225;scara (morph close/open)</text><polygon fill="#F1F1F1" points="985.5148,391.1406,1159.796,391.1406,1171.796,403.1406,1159.796,415.1406,985.5148,415.1406,973.5148,403.1406,985.5148,391.1406" style="stroke:#181818;stroke-width:0.5;"/><text fill="#000000" font-family="sans-serif" font-size="11" lengthAdjust="spacing" textLength="174.2813" x="985.5148" y="406.9487">&#191;Se detecta contorno principal?</text><text fill="#000000" font-family="sans-serif" font-size="11" lengthAdjust="spacing" textLength="10.0386" x="963.4762" y="400.5464">S&#237;</text><text fill="#000000" font-family="sans-serif" font-size="11" lengthAdjust="spacing" textLength="14.9585" x="1171.796" y="400.5464">No</text><rect fill="#F1F1F1" height="33.9688" rx="12.5" ry="12.5" style="stroke:#181818;stroke-width:0.5;" width="166.6777" x="833.3186" y="425.1406"/><text fill="#000000" font-family="sans-serif" font-size="12" lengthAdjust="spacing" textLength="146.6777" x="843.3186" y="446.2793">Calcular &#225;rea, per&#237;metro</text><rect fill="#F1F1F1" height="33.9688" rx="12.5" ry="12.5" style="stroke:#181818;stroke-width:0.5;" width="143.3164" x="844.9993" y="479.1094"/><text fill="#000000" font-family="sans-serif" font-size="12" lengthAdjust="spacing" textLength="123.3164" x="854.9993" y="500.248">Calcular circularidad</text><rect fill="#F1F1F1" height="33.9688" rx="12.5" ry="12.5" style="stroke:#181818;stroke-width:0.5;" width="144.0957" x="844.6096" y="533.0781"/><text fill="#000000" font-family="sans-serif" font-size="12" lengthAdjust="spacing" textLength="124.0957" x="854.6096" y="554.2168">Calcular aspect ratio</text><rect fill="#F1F1F1" height="33.9688" rx="12.5" ry="12.5" style="stroke:#181818;stroke-width:0.5;" width="115.7246" x="858.7952" y="587.0469"/><text fill="#000000" font-family="sans-serif" font-size="12" lengthAdjust="spacing" textLength="95.7246" x="868.7952" y="608.1855">Calcular solidity</text><rect fill="#F1F1F1" height="33.9688" rx="12.5" ry="12.5" style="stroke:#181818;stroke-width:0.5;" width="191.0703" x="821.1223" y="641.0156"/><text fill="#000000" font-family="sans-serif" font-size="12" lengthAdjust="spacing" textLength="171.0703" x="831.1223" y="662.1543">Analizar distribuci&#243;n vertical</text><polygon fill="#F1F1F1" points="839.8159,694.9844,993.499,694.9844,1005.499,706.9844,993.499,718.9844,839.8159,718.9844,827.8159,706.9844,839.8159,694.9844" style="stroke:#181818;stroke-width:0.5;"/><text fill="#000000" font-family="sans-serif" font-size="11" lengthAdjust="spacing" textLength="153.6831" x="839.8159" y="710.7925">&#191;pica_score &gt; trebol_score?</text><text fill="#000000" font-family="sans-serif" font-size="11" lengthAdjust="spacing" textLength="22.478" x="805.3379" y="704.3901">Pica</text><text fill="#000000" font-family="sans-serif" font-size="11" lengthAdjust="spacing" textLength="34.7778" x="1005.499" y="704.3901">Tr&#233;bol</text><rect fill="#F1F1F1" height="33.9688" rx="12.5" ry="12.5" style="stroke:#181818;stroke-width:0.5;" width="143.0586" x="746.2866" y="728.9844"/><text fill="#000000" font-family="sans-serif" font-size="12" lengthAdjust="spacing" textLength="123.0586" x="756.2866" y="750.123">Clasificar como PICA</text><rect fill="#F1F1F1" height="33.9688" rx="12.5" ry="12.5" style="stroke:#181818;stroke-width:0.5;" width="163.3086" x="933.8447" y="728.9844"/><text fill="#000000" font-family="sans-serif" font-size="12" lengthAdjust="spacing" textLength="143.3086" x="943.8447" y="750.123">Clasificar como TR&#201;BOL</text><polygon fill="#F1F1F1" points="916.6575,768.9531,928.6575,780.9531,916.6575,792.9531,904.6575,780.9531,916.6575,768.9531" style="stroke:#181818;stroke-width:0.5;"/><rect fill="#F1F1F1" height="33.9688" rx="12.5" ry="12.5" style="stroke:#181818;stroke-width:0.5;" width="203" x="1127.1533" y="425.1406"/><text fill="#000000" font-family="sans-serif" font-size="12" lengthAdjust="spacing" textLength="183" x="1137.1533" y="446.2793">Clasificar como PICA (fallback)</text><polygon fill="#F1F1F1" points="1072.6554,798.9531,1084.6554,810.9531,1072.6554,822.9531,1060.6554,810.9531,1072.6554,798.9531" style="stroke:#181818;stroke-width:0.5;"/><polygon fill="#F1F1F1" points="735.1395,828.9531,747.1395,840.9531,735.1395,852.9531,723.1395,840.9531,735.1395,828.9531" style="stroke:#181818;stroke-width:0.5;"/><ellipse cx="735.1395" cy="883.9531" fill="none" rx="11" ry="11" style="stroke:#222222;stroke-width:1;"/><ellipse cx="735.1395" cy="883.9531" fill="#222222" rx="6" ry="6" style="stroke:#222222;stroke-width:1;"/><line style="stroke:#181818;stroke-width:1;" x1="735.1395" x2="735.1395" y1="67.2969" y2="87.2969"/><polygon fill="#181818" points="731.1395,77.2969,735.1395,87.2969,739.1395,77.2969,735.1395,81.2969" style="stroke:#181818;stroke-width:1;"/><line style="stroke:#181818;stroke-width:1;" x1="735.1395" x2="735.1395" y1="121.2656" y2="141.2656"/><polygon fill="#181818" points="731.1395,131.2656,735.1395,141.2656,739.1395,131.2656,735.1395,135.2656" style="stroke:#181818;stroke-width:1;"/><line style="stroke:#181818;stroke-width:1;" x1="397.6237" x2="397.6237" y1="263.2031" y2="283.2031"/><polygon fill="#181818" points="393.6237,273.2031,397.6237,283.2031,401.6237,273.2031,397.6237,277.2031" style="stroke:#181818;stroke-width:1;"/><line style="stroke:#181818;stroke-width:1;" x1="397.6237" x2="397.6237" y1="317.1719" y2="337.1719"/><polygon fill="#181818" points="393.6237,327.1719,397.6237,337.1719,401.6237,327.1719,397.6237,331.1719" style="stroke:#181818;stroke-width:1;"/><line style="stroke:#181818;stroke-width:1;" x1="218.4988" x2="218.4988" y1="459.1094" y2="479.1094"/><polygon fill="#181818" points="214.4988,469.1094,218.4988,479.1094,222.4988,469.1094,218.4988,473.1094" style="stroke:#181818;stroke-width:1;"/><line style="stroke:#181818;stroke-width:1;" x1="218.4988" x2="218.4988" y1="513.0781" y2="533.0781"/><polygon fill="#181818" points="214.4988,523.0781,218.4988,533.0781,222.4988,523.0781,218.4988,527.0781" style="stroke:#181818;stroke-width:1;"/><line style="stroke:#181818;stroke-width:1;" x1="218.4988" x2="218.4988" y1="567.0469" y2="587.0469"/><polygon fill="#181818" points="214.4988,577.0469,218.4988,587.0469,222.4988,577.0469,218.4988,581.0469" style="stroke:#181818;stroke-width:1;"/><line style="stroke:#181818;stroke-width:1;" x1="218.4988" x2="218.4988" y1="621.0156" y2="641.0156"/><polygon fill="#181818" points="214.4988,631.0156,218.4988,641.0156,222.4988,631.0156,218.4988,635.0156" style="stroke:#181818;stroke-width:1;"/><line style="stroke:#181818;stroke-width:1;" x1="109.3545" x2="99.3545" y1="706.9844" y2="706.9844"/><line style="stroke:#181818;stroke-width:1;" x1="99.3545" x2="99.3545" y1="706.9844" y2="728.9844"/><polygon fill="#181818" points="95.3545,718.9844,99.3545,728.9844,103.3545,718.9844,99.3545,722.9844" style="stroke:#181818;stroke-width:1;"/><line style="stroke:#181818;stroke-width:1;" x1="327.6431" x2="337.6431" y1="706.9844" y2="706.9844"/><line style="stroke:#181818;stroke-width:1;" x1="337.6431" x2="337.6431" y1="706.9844" y2="728.9844"/><polygon fill="#181818" points="333.6431,718.9844,337.6431,728.9844,341.6431,718.9844,337.6431,722.9844" style="stroke:#181818;stroke-width:1;"/><line style="stroke:#181818;stroke-width:1;" x1="99.3545" x2="99.3545" y1="762.9531" y2="780.9531"/><line style="stroke:#181818;stroke-width:1;" x1="99.3545" x2="206.4988" y1="780.9531" y2="780.9531"/><polygon fill="#181818" points="196.4988,776.9531,206.4988,780.9531,196.4988,784.9531,200.4988,780.9531" style="stroke:#181818;stroke-width:1;"/><line style="stroke:#181818;stroke-width:1;" x1="337.6431" x2="337.6431" y1="762.9531" y2="780.9531"/><line style="stroke:#181818;stroke-width:1;" x1="337.6431" x2="230.4988" y1="780.9531" y2="780.9531"/><polygon fill="#181818" points="240.4988,776.9531,230.4988,780.9531,240.4988,784.9531,236.4988,780.9531" style="stroke:#181818;stroke-width:1;"/><line style="stroke:#181818;stroke-width:1;" x1="218.4988" x2="218.4988" y1="674.9844" y2="694.9844"/><polygon fill="#181818" points="214.4988,684.9844,218.4988,694.9844,222.4988,684.9844,218.4988,688.9844" style="stroke:#181818;stroke-width:1;"/><line style="stroke:#181818;stroke-width:1;" x1="298.483" x2="218.4988" y1="403.1406" y2="403.1406"/><line style="stroke:#181818;stroke-width:1;" x1="218.4988" x2="218.4988" y1="403.1406" y2="425.1406"/><polygon fill="#181818" points="214.4988,415.1406,218.4988,425.1406,222.4988,415.1406,218.4988,419.1406" style="stroke:#181818;stroke-width:1;"/><line style="stroke:#181818;stroke-width:1;" x1="496.7643" x2="576.7485" y1="403.1406" y2="403.1406"/><line style="stroke:#181818;stroke-width:1;" x1="576.7485" x2="576.7485" y1="403.1406" y2="425.1406"/><polygon fill="#181818" points="572.7485,415.1406,576.7485,425.1406,580.7485,415.1406,576.7485,419.1406" style="stroke:#181818;stroke-width:1;"/><line style="stroke:#181818;stroke-width:1;" x1="218.4988" x2="218.4988" y1="792.9531" y2="810.9531"/><line style="stroke:#181818;stroke-width:1;" x1="218.4988" x2="385.6237" y1="810.9531" y2="810.9531"/><polygon fill="#181818" points="375.6237,806.9531,385.6237,810.9531,375.6237,814.9531,379.6237,810.9531" style="stroke:#181818;stroke-width:1;"/><line style="stroke:#181818;stroke-width:1;" x1="576.7485" x2="576.7485" y1="459.1094" y2="810.9531"/><line style="stroke:#181818;stroke-width:1;" x1="576.7485" x2="409.6237" y1="810.9531" y2="810.9531"/><polygon fill="#181818" points="419.6237,806.9531,409.6237,810.9531,419.6237,814.9531,415.6237,810.9531" style="stroke:#181818;stroke-width:1;"/><line style="stroke:#181818;stroke-width:1;" x1="397.6237" x2="397.6237" y1="371.1406" y2="391.1406"/><polygon fill="#181818" points="393.6237,381.1406,397.6237,391.1406,401.6237,381.1406,397.6237,385.1406" style="stroke:#181818;stroke-width:1;"/><line style="stroke:#181818;stroke-width:1;" x1="1072.6554" x2="1072.6554" y1="263.2031" y2="283.2031"/><polygon fill="#181818" points="1068.6554,273.2031,1072.6554,283.2031,1076.6554,273.2031,1072.6554,277.2031" style="stroke:#181818;stroke-width:1;"/><line style="stroke:#181818;stroke-width:1;" x1="1072.6554" x2="1072.6554" y1="317.1719" y2="337.1719"/><polygon fill="#181818" points="1068.6554,327.1719,1072.6554,337.1719,1076.6554,327.1719,1072.6554,331.1719" style="stroke:#181818;stroke-width:1;"/><line style="stroke:#181818;stroke-width:1;" x1="916.6575" x2="916.6575" y1="459.1094" y2="479.1094"/><polygon fill="#181818" points="912.6575,469.1094,916.6575,479.1094,920.6575,469.1094,916.6575,473.1094" style="stroke:#181818;stroke-width:1;"/><line style="stroke:#181818;stroke-width:1;" x1="916.6575" x2="916.6575" y1="513.0781" y2="533.0781"/><polygon fill="#181818" points="912.6575,523.0781,916.6575,533.0781,920.6575,523.0781,916.6575,527.0781" style="stroke:#181818;stroke-width:1;"/><line style="stroke:#181818;stroke-width:1;" x1="916.6575" x2="916.6575" y1="567.0469" y2="587.0469"/><polygon fill="#181818" points="912.6575,577.0469,916.6575,587.0469,920.6575,577.0469,916.6575,581.0469" style="stroke:#181818;stroke-width:1;"/><line style="stroke:#181818;stroke-width:1;" x1="916.6575" x2="916.6575" y1="621.0156" y2="641.0156"/><polygon fill="#181818" points="912.6575,631.0156,916.6575,641.0156,920.6575,631.0156,916.6575,635.0156" style="stroke:#181818;stroke-width:1;"/><line style="stroke:#181818;stroke-width:1;" x1="827.8159" x2="817.8159" y1="706.9844" y2="706.9844"/><line style="stroke:#181818;stroke-width:1;" x1="817.8159" x2="817.8159" y1="706.9844" y2="728.9844"/><polygon fill="#181818" points="813.8159,718.9844,817.8159,728.9844,821.8159,718.9844,817.8159,722.9844" style="stroke:#181818;stroke-width:1;"/><line style="stroke:#181818;stroke-width:1;" x1="1005.499" x2="1015.499" y1="706.9844" y2="706.9844"/><line style="stroke:#181818;stroke-width:1;" x1="1015.499" x2="1015.499" y1="706.9844" y2="728.9844"/><polygon fill="#181818" points="1011.499,718.9844,1015.499,728.9844,1019.499,718.9844,1015.499,722.9844" style="stroke:#181818;stroke-width:1;"/><line style="stroke:#181818;stroke-width:1;" x1="817.8159" x2="817.8159" y1="762.9531" y2="780.9531"/><line style="stroke:#181818;stroke-width:1;" x1="817.8159" x2="904.6575" y1="780.9531" y2="780.9531"/><polygon fill="#181818" points="894.6575,776.9531,904.6575,780.9531,894.6575,784.9531,898.6575,780.9531" style="stroke:#181818;stroke-width:1;"/><line style="stroke:#181818;stroke-width:1;" x1="1015.499" x2="1015.499" y1="762.9531" y2="780.9531"/><line style="stroke:#181818;stroke-width:1;" x1="1015.499" x2="928.6575" y1="780.9531" y2="780.9531"/><polygon fill="#181818" points="938.6575,776.9531,928.6575,780.9531,938.6575,784.9531,934.6575,780.9531" style="stroke:#181818;stroke-width:1;"/><line style="stroke:#181818;stroke-width:1;" x1="916.6575" x2="916.6575" y1="674.9844" y2="694.9844"/><polygon fill="#181818" points="912.6575,684.9844,916.6575,694.9844,920.6575,684.9844,916.6575,688.9844" style="stroke:#181818;stroke-width:1;"/><line style="stroke:#181818;stroke-width:1;" x1="973.5148" x2="916.6575" y1="403.1406" y2="403.1406"/><line style="stroke:#181818;stroke-width:1;" x1="916.6575" x2="916.6575" y1="403.1406" y2="425.1406"/><polygon fill="#181818" points="912.6575,415.1406,916.6575,425.1406,920.6575,415.1406,916.6575,419.1406" style="stroke:#181818;stroke-width:1;"/><line style="stroke:#181818;stroke-width:1;" x1="1171.796" x2="1228.6533" y1="403.1406" y2="403.1406"/><line style="stroke:#181818;stroke-width:1;" x1="1228.6533" x2="1228.6533" y1="403.1406" y2="425.1406"/><polygon fill="#181818" points="1224.6533,415.1406,1228.6533,425.1406,1232.6533,415.1406,1228.6533,419.1406" style="stroke:#181818;stroke-width:1;"/><line style="stroke:#181818;stroke-width:1;" x1="916.6575" x2="916.6575" y1="792.9531" y2="810.9531"/><line style="stroke:#181818;stroke-width:1;" x1="916.6575" x2="1060.6554" y1="810.9531" y2="810.9531"/><polygon fill="#181818" points="1050.6554,806.9531,1060.6554,810.9531,1050.6554,814.9531,1054.6554,810.9531" style="stroke:#181818;stroke-width:1;"/><line style="stroke:#181818;stroke-width:1;" x1="1228.6533" x2="1228.6533" y1="459.1094" y2="810.9531"/><line style="stroke:#181818;stroke-width:1;" x1="1228.6533" x2="1084.6554" y1="810.9531" y2="810.9531"/><polygon fill="#181818" points="1094.6554,806.9531,1084.6554,810.9531,1094.6554,814.9531,1090.6554,810.9531" style="stroke:#181818;stroke-width:1;"/><line style="stroke:#181818;stroke-width:1;" x1="1072.6554" x2="1072.6554" y1="371.1406" y2="391.1406"/><polygon fill="#181818" points="1068.6554,381.1406,1072.6554,391.1406,1076.6554,381.1406,1072.6554,385.1406" style="stroke:#181818;stroke-width:1;"/><line style="stroke:#181818;stroke-width:1;" x1="638.3219" x2="397.6237" y1="207.2344" y2="207.2344"/><line style="stroke:#181818;stroke-width:1;" x1="397.6237" x2="397.6237" y1="207.2344" y2="229.2344"/><polygon fill="#181818" points="393.6237,219.2344,397.6237,229.2344,401.6237,219.2344,397.6237,223.2344" style="stroke:#181818;stroke-width:1;"/><line style="stroke:#181818;stroke-width:1;" x1="831.9572" x2="1072.6554" y1="207.2344" y2="207.2344"/><line style="stroke:#181818;stroke-width:1;" x1="1072.6554" x2="1072.6554" y1="207.2344" y2="229.2344"/><polygon fill="#181818" points="1068.6554,219.2344,1072.6554,229.2344,1076.6554,219.2344,1072.6554,223.2344" style="stroke:#181818;stroke-width:1;"/><line style="stroke:#181818;stroke-width:1;" x1="397.6237" x2="397.6237" y1="822.9531" y2="840.9531"/><line style="stroke:#181818;stroke-width:1;" x1="397.6237" x2="723.1395" y1="840.9531" y2="840.9531"/><polygon fill="#181818" points="713.1395,836.9531,723.1395,840.9531,713.1395,844.9531,717.1395,840.9531" style="stroke:#181818;stroke-width:1;"/><line style="stroke:#181818;stroke-width:1;" x1="1072.6554" x2="1072.6554" y1="822.9531" y2="840.9531"/><line style="stroke:#181818;stroke-width:1;" x1="1072.6554" x2="747.1395" y1="840.9531" y2="840.9531"/><polygon fill="#181818" points="757.1395,836.9531,747.1395,840.9531,757.1395,844.9531,753.1395,840.9531" style="stroke:#181818;stroke-width:1;"/><line style="stroke:#181818;stroke-width:1;" x1="735.1395" x2="735.1395" y1="175.2344" y2="195.2344"/><polygon fill="#181818" points="731.1395,185.2344,735.1395,195.2344,739.1395,185.2344,735.1395,189.2344" style="stroke:#181818;stroke-width:1;"/><line style="stroke:#181818;stroke-width:1;" x1="735.1395" x2="735.1395" y1="852.9531" y2="872.9531"/><polygon fill="#181818" points="731.1395,862.9531,735.1395,872.9531,739.1395,862.9531,735.1395,866.9531" style="stroke:#181818;stroke-width:1;"/><!--SRC=[xLInZXD13EttArnk911z8e729XAH88cIY886EJFEnSViU3KpXo1_GCqNN4bn5H-0nFuOpkvo2KToaQZPPaP-ptxs-6aJ9qSmOhmAM29OlPFXoFLt3q-XS1XvmmPD4x3aO8vEiYmc32dB-kDFAI05MCmcaE_48yJwhboBazuWwnVYFr98tE88hvPl1rd66yX__jX7ZFZ4v0cibEpH9u8Wr_YY1sbB7l9bVTVBGB_-E89HHMpmGHVhjClwDYhOOf1RYH3GN-cXUhsEF0zYAE8HEoybL5imJY8zaugyKXjkszzIkw94HZNtRKhm0bLWRxX2ztU7ZKY1pjmu5Qbl0-4Jg2ZeQr0ACZX1CXoQ2rkqft2CbShhB8bFvaTnR3bzFiA67Xtl5BCSK-3rJRktPWa6NJVWOKWZ0NVAU1_rHl1SyzG5keSsS3zcqV4EixQj_BQ73YEbG35R3D_LNwU7ZiX5WdpKLRsGFfeCtmodg_5HkhUyQPjkAqtb-BdFv4E-GUVMQ3vqs-_A_5dYu2bFQlvpfcf0oDCsKDoAip2P_ZVLewQgD7flg1H8_mOFx3HNnWKlp2V5yA6DLg7-fiKkPAuMzPUNizV_QgAzy5a3jKTCKlq2]--></g></svg>