<svg xmlns="http://www.w3.org/2000/svg" xmlns:xlink="http://www.w3.org/1999/xlink" contentStyleType="text/css" data-diagram-type="ACTIVITY" height="673px" preserveAspectRatio="none" style="width:637px;height:673px;background:#FFFFFF;" version="1.1" viewBox="0 0 637 673" width="637px" zoomAndPan="magnify"><title>Pipeline de Procesamiento de Imagen</title><defs/><g><g class="title" data-source-line="1"><text fill="#000000" font-family="sans-serif" font-size="14" font-weight="bold" lengthAdjust="spacing" textLength="298.4092" x="167.97" y="32.9951">Pipeline de Procesamiento de Imagen</text></g><ellipse cx="260.6636" cy="57.2969" fill="#222222" rx="10" ry="10" style="stroke:#222222;stroke-width:1;"/><rect fill="#F1F1F1" height="33.9688" rx="12.5" ry="12.5" style="stroke:#181818;stroke-width:0.5;" width="106.9297" x="207.1987" y="87.2969"/><text fill="#000000" font-family="sans-serif" font-size="12" lengthAdjust="spacing" textLength="86.9297" x="217.1987" y="108.4355">Frame original</text><path d="M370.814,138.1172 L370.814,154.25 L350.814,158.25 L370.814,162.25 L370.814,178.3828 A0,0 0 0 0 370.814,178.3828 L609.4497,178.3828 A0,0 0 0 0 609.4497,178.3828 L609.4497,148.1172 L599.4497,138.1172 L370.814,138.1172 A0,0 0 0 0 370.814,138.1172" fill="#FEFFDD" style="stroke:#181818;stroke-width:0.5;"/><path d="M599.4497,138.1172 L599.4497,148.1172 L609.4497,148.1172 L599.4497,138.1172" fill="#FEFFDD" style="stroke:#181818;stroke-width:0.5;"/><text fill="#000000" font-family="sans-serif" font-size="13" lengthAdjust="spacing" textLength="217.6357" x="376.814" y="155.1841">Convierte a escala de grises para</text><text fill="#000000" font-family="sans-serif" font-size="13" lengthAdjust="spacing" textLength="188.1763" x="376.814" y="170.3169">simplificar el procesamiento.</text><rect fill="#F1F1F1" height="33.9688" rx="12.5" ry="12.5" style="stroke:#181818;stroke-width:0.5;" width="180.3008" x="170.5132" y="141.2656"/><text fill="#000000" font-family="sans-serif" font-size="12" lengthAdjust="spacing" textLength="160.3008" x="180.5132" y="162.4043">cv2.cvtColor (BGR &#8594; Gray)</text><path d="M348.0181,202.8008 L348.0181,211.3672 L328.0181,215.3672 L348.0181,219.3672 L348.0181,227.9336 A0,0 0 0 0 348.0181,227.9336 L625.3491,227.9336 A0,0 0 0 0 625.3491,227.9336 L625.3491,212.8008 L615.3491,202.8008 L348.0181,202.8008 A0,0 0 0 0 348.0181,202.8008" fill="#FEFFDD" style="stroke:#181818;stroke-width:0.5;"/><path d="M615.3491,202.8008 L615.3491,212.8008 L625.3491,212.8008 L615.3491,202.8008" fill="#FEFFDD" style="stroke:#181818;stroke-width:0.5;"/><text fill="#000000" font-family="sans-serif" font-size="13" lengthAdjust="spacing" textLength="256.3311" x="354.0181" y="219.8677">Reduce ruido para evitar bordes falsos.</text><rect fill="#F1F1F1" height="33.9688" rx="12.5" ry="12.5" style="stroke:#181818;stroke-width:0.5;" width="134.709" x="193.3091" y="198.3828"/><text fill="#000000" font-family="sans-serif" font-size="12" lengthAdjust="spacing" textLength="114.709" x="203.3091" y="219.5215">GaussianBlur (5x5)</text><path d="M335.3618,256.7695 L335.3618,265.3359 L315.3618,269.3359 L335.3618,273.3359 L335.3618,281.9023 A0,0 0 0 0 335.3618,281.9023 L581.9321,281.9023 A0,0 0 0 0 581.9321,281.9023 L581.9321,266.7695 L571.9321,256.7695 L335.3618,256.7695 A0,0 0 0 0 335.3618,256.7695" fill="#FEFFDD" style="stroke:#181818;stroke-width:0.5;"/><path d="M571.9321,256.7695 L571.9321,266.7695 L581.9321,266.7695 L571.9321,256.7695" fill="#FEFFDD" style="stroke:#181818;stroke-width:0.5;"/><text fill="#000000" font-family="sans-serif" font-size="13" lengthAdjust="spacing" textLength="225.5703" x="341.3618" y="273.8364">Detecta bordes n&#237;tidos de la carta.</text><rect fill="#F1F1F1" height="33.9688" rx="12.5" ry="12.5" style="stroke:#181818;stroke-width:0.5;" width="109.3965" x="205.9653" y="252.3516"/><text fill="#000000" font-family="sans-serif" font-size="12" lengthAdjust="spacing" textLength="89.3965" x="215.9653" y="273.4902">Canny(60,150)</text><rect fill="#F1F1F1" height="33.9688" rx="12.5" ry="12.5" style="stroke:#181818;stroke-width:0.5;" width="106.3086" x="207.5093" y="306.3203"/><text fill="#000000" font-family="sans-serif" font-size="12" lengthAdjust="spacing" textLength="86.3086" x="217.5093" y="327.459">findContours()</text><polygon fill="#F1F1F1" points="211.2146,360.2891,310.1125,360.2891,322.1125,372.2891,310.1125,384.2891,211.2146,384.2891,199.2146,372.2891,211.2146,360.2891" style="stroke:#181818;stroke-width:0.5;"/><text fill="#000000" font-family="sans-serif" font-size="11" lengthAdjust="spacing" textLength="98.8979" x="211.2146" y="376.0972">&#191;Contorno v&#225;lido?</text><text fill="#000000" font-family="sans-serif" font-size="11" lengthAdjust="spacing" textLength="10.0386" x="189.176" y="369.6948">S&#237;</text><text fill="#000000" font-family="sans-serif" font-size="11" lengthAdjust="spacing" textLength="14.9585" x="322.1125" y="369.6948">No</text><rect fill="#F1F1F1" height="33.9688" rx="12.5" ry="12.5" style="stroke:#181818;stroke-width:0.5;" width="112.8184" x="94.6748" y="394.2891"/><text fill="#000000" font-family="sans-serif" font-size="12" lengthAdjust="spacing" textLength="92.8184" x="104.6748" y="415.4277">approxPolyDP()</text><rect fill="#F1F1F1" height="33.9688" rx="12.5" ry="12.5" style="stroke:#181818;stroke-width:0.5;" width="129.0078" x="86.5801" y="448.2578"/><text fill="#000000" font-family="sans-serif" font-size="12" lengthAdjust="spacing" textLength="109.0078" x="96.5801" y="469.3965">warpPerspective()</text><rect fill="#F1F1F1" height="33.9688" rx="12.5" ry="12.5" style="stroke:#181818;stroke-width:0.5;" width="280.168" x="11" y="502.2266"/><text fill="#000000" font-family="sans-serif" font-size="12" lengthAdjust="spacing" textLength="260.168" x="21" y="523.3652">Template Matching (TM_CCOEFF_NORMED)</text><rect fill="#F1F1F1" height="33.9688" rx="12.5" ry="12.5" style="stroke:#181818;stroke-width:0.5;" width="199.9707" x="51.0986" y="556.1953"/><text fill="#000000" font-family="sans-serif" font-size="12" lengthAdjust="spacing" textLength="179.9707" x="61.0986" y="577.334">Obtener nombre, palo y score</text><rect fill="#F1F1F1" height="33.9688" rx="12.5" ry="12.5" style="stroke:#181818;stroke-width:0.5;" width="118.1504" x="311.168" y="394.2891"/><text fill="#000000" font-family="sans-serif" font-size="12" lengthAdjust="spacing" textLength="98.1504" x="321.168" y="415.4277">Descartar frame</text><polygon fill="#F1F1F1" points="260.6636,596.1641,272.6636,608.1641,260.6636,620.1641,248.6636,608.1641,260.6636,596.1641" style="stroke:#181818;stroke-width:0.5;"/><ellipse cx="260.6636" cy="651.1641" fill="none" rx="11" ry="11" style="stroke:#222222;stroke-width:1;"/><ellipse cx="260.6636" cy="651.1641" fill="#222222" rx="6" ry="6" style="stroke:#222222;stroke-width:1;"/><line style="stroke:#181818;stroke-width:1;" x1="260.6636" x2="260.6636" y1="67.2969" y2="87.2969"/><polygon fill="#181818" points="256.6636,77.2969,260.6636,87.2969,264.6636,77.2969,260.6636,81.2969" style="stroke:#181818;stroke-width:1;"/><line style="stroke:#181818;stroke-width:1;" x1="260.6636" x2="260.6636" y1="121.2656" y2="141.2656"/><polygon fill="#181818" points="256.6636,131.2656,260.6636,141.2656,264.6636,131.2656,260.6636,135.2656" style="stroke:#181818;stroke-width:1;"/><line style="stroke:#181818;stroke-width:1;" x1="260.6636" x2="260.6636" y1="175.2344" y2="198.3828"/><polygon fill="#181818" points="256.6636,188.3828,260.6636,198.3828,264.6636,188.3828,260.6636,192.3828" style="stroke:#181818;stroke-width:1;"/><line style="stroke:#181818;stroke-width:1;" x1="260.6636" x2="260.6636" y1="232.3516" y2="252.3516"/><polygon fill="#181818" points="256.6636,242.3516,260.6636,252.3516,264.6636,242.3516,260.6636,246.3516" style="stroke:#181818;stroke-width:1;"/><line style="stroke:#181818;stroke-width:1;" x1="260.6636" x2="260.6636" y1="286.3203" y2="306.3203"/><polygon fill="#181818" points="256.6636,296.3203,260.6636,306.3203,264.6636,296.3203,260.6636,300.3203" style="stroke:#181818;stroke-width:1;"/><line style="stroke:#181818;stroke-width:1;" x1="151.084" x2="151.084" y1="428.2578" y2="448.2578"/><polygon fill="#181818" points="147.084,438.2578,151.084,448.2578,155.084,438.2578,151.084,442.2578" style="stroke:#181818;stroke-width:1;"/><line style="stroke:#181818;stroke-width:1;" x1="151.084" x2="151.084" y1="482.2266" y2="502.2266"/><polygon fill="#181818" points="147.084,492.2266,151.084,502.2266,155.084,492.2266,151.084,496.2266" style="stroke:#181818;stroke-width:1;"/><line style="stroke:#181818;stroke-width:1;" x1="151.084" x2="151.084" y1="536.1953" y2="556.1953"/><polygon fill="#181818" points="147.084,546.1953,151.084,556.1953,155.084,546.1953,151.084,550.1953" style="stroke:#181818;stroke-width:1;"/><line style="stroke:#181818;stroke-width:1;" x1="199.2146" x2="151.084" y1="372.2891" y2="372.2891"/><line style="stroke:#181818;stroke-width:1;" x1="151.084" x2="151.084" y1="372.2891" y2="394.2891"/><polygon fill="#181818" points="147.084,384.2891,151.084,394.2891,155.084,384.2891,151.084,388.2891" style="stroke:#181818;stroke-width:1;"/><line style="stroke:#181818;stroke-width:1;" x1="322.1125" x2="370.2432" y1="372.2891" y2="372.2891"/><line style="stroke:#181818;stroke-width:1;" x1="370.2432" x2="370.2432" y1="372.2891" y2="394.2891"/><polygon fill="#181818" points="366.2432,384.2891,370.2432,394.2891,374.2432,384.2891,370.2432,388.2891" style="stroke:#181818;stroke-width:1;"/><line style="stroke:#181818;stroke-width:1;" x1="151.084" x2="151.084" y1="590.1641" y2="608.1641"/><line style="stroke:#181818;stroke-width:1;" x1="151.084" x2="248.6636" y1="608.1641" y2="608.1641"/><polygon fill="#181818" points="238.6636,604.1641,248.6636,608.1641,238.6636,612.1641,242.6636,608.1641" style="stroke:#181818;stroke-width:1;"/><line style="stroke:#181818;stroke-width:1;" x1="370.2432" x2="370.2432" y1="428.2578" y2="608.1641"/><line style="stroke:#181818;stroke-width:1;" x1="370.2432" x2="272.6636" y1="608.1641" y2="608.1641"/><polygon fill="#181818" points="282.6636,604.1641,272.6636,608.1641,282.6636,612.1641,278.6636,608.1641" style="stroke:#181818;stroke-width:1;"/><line style="stroke:#181818;stroke-width:1;" x1="260.6636" x2="260.6636" y1="340.2891" y2="360.2891"/><polygon fill="#181818" points="256.6636,350.2891,260.6636,360.2891,264.6636,350.2891,260.6636,354.2891" style="stroke:#181818;stroke-width:1;"/><line style="stroke:#181818;stroke-width:1;" x1="260.6636" x2="260.6636" y1="620.1641" y2="640.1641"/><polygon fill="#181818" points="256.6636,630.1641,260.6636,640.1641,264.6636,630.1641,260.6636,634.1641" style="stroke:#181818;stroke-width:1;"/><!--SRC=[LP51RXin34NtEWMNOo08qWBkmbuKo3Wskd1ikDa7j8PZ4z280qepZI_G0_G6FK3EKA2-IKzIoaYAMYlnW_ny93FdGB3bdW97WiR-AfuITamnIn6-T7YWw5pAgDdDbeeTWIWVE6AOkvaVFzxwCTSIHA6wN-tWp_SVi58yJUOkIYQmt6DsjSIHIIr6eEGnO74_A2TAqAEYIzprWLlsg401-lz9RXt51egTSxCL3YannlimMClfo_IwquwQmLimS2CNPw2HZHxseeqrQp4aILUEDSPugZxTtNoOtbsRBIYJp_XU6y-lsMnJORS933NZbLFBiR5HimoQAhFY5ghVlowAHe7n_3DO_US9v2D5gBwUNoSExCsmju5VjX9EYsqfl8ZVKFijQUgDWKVwfp-HhGeDSetP7paUe7fQFzVrvc6vV7xSxDOFY_VKpJvJ93M-RgzqOmi90YT8NfJcZa8Yg1xb3M9HBgDbLssvyxnCncqvllH_0G00]--></g></svg>