<svg xmlns="http://www.w3.org/2000/svg" xmlns:xlink="http://www.w3.org/1999/xlink" contentStyleType="text/css" data-diagram-type="ACTIVITY" height="1013px" preserveAspectRatio="none" style="width:961px;height:1013px;background:#FFFFFF;" version="1.1" viewBox="0 0 961 1013" width="961px" zoomAndPan="magnify"><title>Secuenciaci&#243;n de Procesamiento de Imagen</title><defs/><g><g class="title" data-source-line="1"><text fill="#000000" font-family="sans-serif" font-size="14" font-weight="bold" lengthAdjust="spacing" textLength="347.3066" x="305.7354" y="32.9951">Secuenciaci&#243;n de Procesamiento de Imagen</text></g><ellipse cx="699.9767" cy="57.2969" fill="#222222" rx="10" ry="10" style="stroke:#222222;stroke-width:1;"/><rect fill="#F1F1F1" height="33.9688" rx="12.5" ry="12.5" style="stroke:#181818;stroke-width:0.5;" width="206.6152" x="596.6691" y="87.2969"/><text fill="#000000" font-family="sans-serif" font-size="12" lengthAdjust="spacing" textLength="186.6152" x="606.6691" y="108.4355">Capturar frame desde webcam</text><rect fill="#F1F1F1" height="33.9688" rx="12.5" ry="12.5" style="stroke:#181818;stroke-width:0.5;" width="187.373" x="606.2902" y="141.2656"/><text fill="#000000" font-family="sans-serif" font-size="12" lengthAdjust="spacing" textLength="167.373" x="616.2902" y="162.4043">Convertir a escala de grises</text><rect fill="#F1F1F1" height="33.9688" rx="12.5" ry="12.5" style="stroke:#181818;stroke-width:0.5;" width="179.9023" x="610.0255" y="195.2344"/><text fill="#000000" font-family="sans-serif" font-size="12" lengthAdjust="spacing" textLength="159.9023" x="620.0255" y="216.373">Aplicar GaussianBlur (5x5)</text><rect fill="#F1F1F1" height="33.9688" rx="12.5" ry="12.5" style="stroke:#181818;stroke-width:0.5;" width="241.502" x="579.2257" y="249.2031"/><text fill="#000000" font-family="sans-serif" font-size="12" lengthAdjust="spacing" textLength="221.502" x="589.2257" y="270.3418">Detecci&#243;n de bordes (Canny 60-150)</text><rect fill="#F1F1F1" height="33.9688" rx="12.5" ry="12.5" style="stroke:#181818;stroke-width:0.5;" width="181.0332" x="609.4601" y="303.1719"/><text fill="#000000" font-family="sans-serif" font-size="12" lengthAdjust="spacing" textLength="161.0332" x="619.4601" y="324.3105">Buscar contornos externos</text><polygon fill="#F1F1F1" points="654.2552,357.1406,745.6981,357.1406,757.6981,369.1406,745.6981,381.1406,654.2552,381.1406,642.2552,369.1406,654.2552,357.1406" style="stroke:#181818;stroke-width:0.5;"/><text fill="#000000" font-family="sans-serif" font-size="11" lengthAdjust="spacing" textLength="91.4429" x="654.2552" y="372.9487">&#191;Hay contornos?</text><text fill="#000000" font-family="sans-serif" font-size="11" lengthAdjust="spacing" textLength="10.0386" x="632.2167" y="366.5464">S&#237;</text><text fill="#000000" font-family="sans-serif" font-size="11" lengthAdjust="spacing" textLength="14.9585" x="757.6981" y="366.5464">No</text><rect fill="#F1F1F1" height="33.9688" rx="12.5" ry="12.5" style="stroke:#181818;stroke-width:0.5;" width="203.5332" x="416.4514" y="391.1406"/><text fill="#000000" font-family="sans-serif" font-size="12" lengthAdjust="spacing" textLength="183.5332" x="426.4514" y="412.2793">Seleccionar el contorno mayor</text><polygon fill="#F1F1F1" points="477.4998,445.1094,558.9363,445.1094,570.9363,457.1094,558.9363,469.1094,477.4998,469.1094,465.4998,457.1094,477.4998,445.1094" style="stroke:#181818;stroke-width:0.5;"/><text fill="#000000" font-family="sans-serif" font-size="11" lengthAdjust="spacing" textLength="81.4365" x="477.4998" y="460.9175">&#191;&#193;rea &gt; 2000?</text><text fill="#000000" font-family="sans-serif" font-size="11" lengthAdjust="spacing" textLength="10.0386" x="455.4612" y="454.5151">S&#237;</text><text fill="#000000" font-family="sans-serif" font-size="11" lengthAdjust="spacing" textLength="14.9585" x="570.9363" y="454.5151">No</text><rect fill="#F1F1F1" height="33.9688" rx="12.5" ry="12.5" style="stroke:#181818;stroke-width:0.5;" width="334.6543" x="182.6187" y="479.1094"/><text fill="#000000" font-family="sans-serif" font-size="12" lengthAdjust="spacing" textLength="314.6543" x="192.6187" y="500.248">Aproximar contorno a pol&#237;gonos (epsilon=0.02*peri)</text><polygon fill="#F1F1F1" points="280.186,533.0781,419.7056,533.0781,431.7056,545.0781,419.7056,557.0781,280.186,557.0781,268.186,545.0781,280.186,533.0781" style="stroke:#181818;stroke-width:0.5;"/><text fill="#000000" font-family="sans-serif" font-size="11" lengthAdjust="spacing" textLength="139.5195" x="280.186" y="548.8862">&#191;Pol&#237;gono con 4 v&#233;rtices?</text><text fill="#000000" font-family="sans-serif" font-size="11" lengthAdjust="spacing" textLength="10.0386" x="258.1475" y="542.4839">S&#237;</text><text fill="#000000" font-family="sans-serif" font-size="11" lengthAdjust="spacing" textLength="14.9585" x="431.7056" y="542.4839">No</text><rect fill="#F1F1F1" height="33.9688" rx="12.5" ry="12.5" style="stroke:#181818;stroke-width:0.5;" width="189.5879" x="112.8301" y="567.0781"/><text fill="#000000" font-family="sans-serif" font-size="12" lengthAdjust="spacing" textLength="169.5879" x="122.8301" y="588.2168">WarpPerspective a 200x300</text><rect fill="#F1F1F1" height="33.9688" rx="12.5" ry="12.5" style="stroke:#181818;stroke-width:0.5;" width="176.7793" x="119.2344" y="621.0469"/><text fill="#000000" font-family="sans-serif" font-size="12" lengthAdjust="spacing" textLength="156.7793" x="129.2344" y="642.1855">Extraer carta normalizada</text><rect fill="#F1F1F1" height="33.9688" rx="12.5" ry="12.5" style="stroke:#181818;stroke-width:0.5;" width="283.7012" x="65.7734" y="675.0156"/><text fill="#000000" font-family="sans-serif" font-size="12" lengthAdjust="spacing" textLength="263.7012" x="75.7734" y="696.1543">Detectar palo mediante ROI y l&#243;gica h&#237;brida</text><rect fill="#F1F1F1" height="33.9688" rx="12.5" ry="12.5" style="stroke:#181818;stroke-width:0.5;" width="213.6816" x="100.7832" y="728.9844"/><text fill="#000000" font-family="sans-serif" font-size="12" lengthAdjust="spacing" textLength="193.6816" x="110.7832" y="750.123">Convertir carta a gris (200x300)</text><rect fill="#F1F1F1" height="33.9688" rx="12.5" ry="12.5" style="stroke:#181818;stroke-width:0.5;" width="393.248" x="11" y="782.9531"/><text fill="#000000" font-family="sans-serif" font-size="12" lengthAdjust="spacing" textLength="373.248" x="21" y="804.0918">Comparar con templates del palo detectado (matchTemplate)</text><rect fill="#F1F1F1" height="33.9688" rx="12.5" ry="12.5" style="stroke:#181818;stroke-width:0.5;" width="150.1895" x="132.5293" y="836.9219"/><text fill="#000000" font-family="sans-serif" font-size="12" lengthAdjust="spacing" textLength="130.1895" x="142.5293" y="858.0605">Obtener valor y score</text><rect fill="#F1F1F1" height="33.9688" rx="12.5" ry="12.5" style="stroke:#181818;stroke-width:0.5;" width="136.0391" x="424.248" y="567.0781"/><text fill="#000000" font-family="sans-serif" font-size="12" lengthAdjust="spacing" textLength="116.0391" x="434.248" y="588.2168">Descartar contorno</text><polygon fill="#F1F1F1" points="349.9458,876.8906,361.9458,888.8906,349.9458,900.8906,337.9458,888.8906,349.9458,876.8906" style="stroke:#181818;stroke-width:0.5;"/><rect fill="#F1F1F1" height="33.9688" rx="12.5" ry="12.5" style="stroke:#181818;stroke-width:0.5;" width="192.4063" x="590.2871" y="479.1094"/><text fill="#000000" font-family="sans-serif" font-size="12" lengthAdjust="spacing" textLength="172.4063" x="600.2871" y="500.248">Descartar contorno peque&#241;o</text><polygon fill="#F1F1F1" points="518.218,906.8906,530.218,918.8906,518.218,930.8906,506.218,918.8906,518.218,906.8906" style="stroke:#181818;stroke-width:0.5;"/><rect fill="#F1F1F1" height="33.9688" rx="12.5" ry="12.5" style="stroke:#181818;stroke-width:0.5;" width="138.084" x="812.6934" y="391.1406"/><text fill="#000000" font-family="sans-serif" font-size="12" lengthAdjust="spacing" textLength="118.084" x="822.6934" y="412.2793">No se detecta carta</text><polygon fill="#F1F1F1" points="699.9767,936.8906,711.9767,948.8906,699.9767,960.8906,687.9767,948.8906,699.9767,936.8906" style="stroke:#181818;stroke-width:0.5;"/><ellipse cx="699.9767" cy="991.8906" fill="none" rx="11" ry="11" style="stroke:#222222;stroke-width:1;"/><ellipse cx="699.9767" cy="991.8906" fill="#222222" rx="6" ry="6" style="stroke:#222222;stroke-width:1;"/><line style="stroke:#181818;stroke-width:1;" x1="699.9767" x2="699.9767" y1="67.2969" y2="87.2969"/><polygon fill="#181818" points="695.9767,77.2969,699.9767,87.2969,703.9767,77.2969,699.9767,81.2969" style="stroke:#181818;stroke-width:1;"/><line style="stroke:#181818;stroke-width:1;" x1="699.9767" x2="699.9767" y1="121.2656" y2="141.2656"/><polygon fill="#181818" points="695.9767,131.2656,699.9767,141.2656,703.9767,131.2656,699.9767,135.2656" style="stroke:#181818;stroke-width:1;"/><line style="stroke:#181818;stroke-width:1;" x1="699.9767" x2="699.9767" y1="175.2344" y2="195.2344"/><polygon fill="#181818" points="695.9767,185.2344,699.9767,195.2344,703.9767,185.2344,699.9767,189.2344" style="stroke:#181818;stroke-width:1;"/><line style="stroke:#181818;stroke-width:1;" x1="699.9767" x2="699.9767" y1="229.2031" y2="249.2031"/><polygon fill="#181818" points="695.9767,239.2031,699.9767,249.2031,703.9767,239.2031,699.9767,243.2031" style="stroke:#181818;stroke-width:1;"/><line style="stroke:#181818;stroke-width:1;" x1="699.9767" x2="699.9767" y1="283.1719" y2="303.1719"/><polygon fill="#181818" points="695.9767,293.1719,699.9767,303.1719,703.9767,293.1719,699.9767,297.1719" style="stroke:#181818;stroke-width:1;"/><line style="stroke:#181818;stroke-width:1;" x1="207.624" x2="207.624" y1="601.0469" y2="621.0469"/><polygon fill="#181818" points="203.624,611.0469,207.624,621.0469,211.624,611.0469,207.624,615.0469" style="stroke:#181818;stroke-width:1;"/><line style="stroke:#181818;stroke-width:1;" x1="207.624" x2="207.624" y1="655.0156" y2="675.0156"/><polygon fill="#181818" points="203.624,665.0156,207.624,675.0156,211.624,665.0156,207.624,669.0156" style="stroke:#181818;stroke-width:1;"/><line style="stroke:#181818;stroke-width:1;" x1="207.624" x2="207.624" y1="708.9844" y2="728.9844"/><polygon fill="#181818" points="203.624,718.9844,207.624,728.9844,211.624,718.9844,207.624,722.9844" style="stroke:#181818;stroke-width:1;"/><line style="stroke:#181818;stroke-width:1;" x1="207.624" x2="207.624" y1="762.9531" y2="782.9531"/><polygon fill="#181818" points="203.624,772.9531,207.624,782.9531,211.624,772.9531,207.624,776.9531" style="stroke:#181818;stroke-width:1;"/><line style="stroke:#181818;stroke-width:1;" x1="207.624" x2="207.624" y1="816.9219" y2="836.9219"/><polygon fill="#181818" points="203.624,826.9219,207.624,836.9219,211.624,826.9219,207.624,830.9219" style="stroke:#181818;stroke-width:1;"/><line style="stroke:#181818;stroke-width:1;" x1="268.186" x2="207.624" y1="545.0781" y2="545.0781"/><line style="stroke:#181818;stroke-width:1;" x1="207.624" x2="207.624" y1="545.0781" y2="567.0781"/><polygon fill="#181818" points="203.624,557.0781,207.624,567.0781,211.624,557.0781,207.624,561.0781" style="stroke:#181818;stroke-width:1;"/><line style="stroke:#181818;stroke-width:1;" x1="431.7056" x2="492.2676" y1="545.0781" y2="545.0781"/><line style="stroke:#181818;stroke-width:1;" x1="492.2676" x2="492.2676" y1="545.0781" y2="567.0781"/><polygon fill="#181818" points="488.2676,557.0781,492.2676,567.0781,496.2676,557.0781,492.2676,561.0781" style="stroke:#181818;stroke-width:1;"/><line style="stroke:#181818;stroke-width:1;" x1="207.624" x2="207.624" y1="870.8906" y2="888.8906"/><line style="stroke:#181818;stroke-width:1;" x1="207.624" x2="337.9458" y1="888.8906" y2="888.8906"/><polygon fill="#181818" points="327.9458,884.8906,337.9458,888.8906,327.9458,892.8906,331.9458,888.8906" style="stroke:#181818;stroke-width:1;"/><line style="stroke:#181818;stroke-width:1;" x1="492.2676" x2="492.2676" y1="601.0469" y2="888.8906"/><line style="stroke:#181818;stroke-width:1;" x1="492.2676" x2="361.9458" y1="888.8906" y2="888.8906"/><polygon fill="#181818" points="371.9458,884.8906,361.9458,888.8906,371.9458,892.8906,367.9458,888.8906" style="stroke:#181818;stroke-width:1;"/><line style="stroke:#181818;stroke-width:1;" x1="349.9458" x2="349.9458" y1="513.0781" y2="533.0781"/><polygon fill="#181818" points="345.9458,523.0781,349.9458,533.0781,353.9458,523.0781,349.9458,527.0781" style="stroke:#181818;stroke-width:1;"/><line style="stroke:#181818;stroke-width:1;" x1="465.4998" x2="349.9458" y1="457.1094" y2="457.1094"/><line style="stroke:#181818;stroke-width:1;" x1="349.9458" x2="349.9458" y1="457.1094" y2="479.1094"/><polygon fill="#181818" points="345.9458,469.1094,349.9458,479.1094,353.9458,469.1094,349.9458,473.1094" style="stroke:#181818;stroke-width:1;"/><line style="stroke:#181818;stroke-width:1;" x1="570.9363" x2="686.4902" y1="457.1094" y2="457.1094"/><line style="stroke:#181818;stroke-width:1;" x1="686.4902" x2="686.4902" y1="457.1094" y2="479.1094"/><polygon fill="#181818" points="682.4902,469.1094,686.4902,479.1094,690.4902,469.1094,686.4902,473.1094" style="stroke:#181818;stroke-width:1;"/><line style="stroke:#181818;stroke-width:1;" x1="349.9458" x2="349.9458" y1="900.8906" y2="918.8906"/><line style="stroke:#181818;stroke-width:1;" x1="349.9458" x2="506.218" y1="918.8906" y2="918.8906"/><polygon fill="#181818" points="496.218,914.8906,506.218,918.8906,496.218,922.8906,500.218,918.8906" style="stroke:#181818;stroke-width:1;"/><line style="stroke:#181818;stroke-width:1;" x1="686.4902" x2="686.4902" y1="513.0781" y2="918.8906"/><line style="stroke:#181818;stroke-width:1;" x1="686.4902" x2="530.218" y1="918.8906" y2="918.8906"/><polygon fill="#181818" points="540.218,914.8906,530.218,918.8906,540.218,922.8906,536.218,918.8906" style="stroke:#181818;stroke-width:1;"/><line style="stroke:#181818;stroke-width:1;" x1="518.218" x2="518.218" y1="425.1094" y2="445.1094"/><polygon fill="#181818" points="514.218,435.1094,518.218,445.1094,522.218,435.1094,518.218,439.1094" style="stroke:#181818;stroke-width:1;"/><line style="stroke:#181818;stroke-width:1;" x1="642.2552" x2="518.218" y1="369.1406" y2="369.1406"/><line style="stroke:#181818;stroke-width:1;" x1="518.218" x2="518.218" y1="369.1406" y2="391.1406"/><polygon fill="#181818" points="514.218,381.1406,518.218,391.1406,522.218,381.1406,518.218,385.1406" style="stroke:#181818;stroke-width:1;"/><line style="stroke:#181818;stroke-width:1;" x1="757.6981" x2="881.7354" y1="369.1406" y2="369.1406"/><line style="stroke:#181818;stroke-width:1;" x1="881.7354" x2="881.7354" y1="369.1406" y2="391.1406"/><polygon fill="#181818" points="877.7354,381.1406,881.7354,391.1406,885.7354,381.1406,881.7354,385.1406" style="stroke:#181818;stroke-width:1;"/><line style="stroke:#181818;stroke-width:1;" x1="518.218" x2="518.218" y1="930.8906" y2="948.8906"/><line style="stroke:#181818;stroke-width:1;" x1="518.218" x2="687.9767" y1="948.8906" y2="948.8906"/><polygon fill="#181818" points="677.9767,944.8906,687.9767,948.8906,677.9767,952.8906,681.9767,948.8906" style="stroke:#181818;stroke-width:1;"/><line style="stroke:#181818;stroke-width:1;" x1="881.7354" x2="881.7354" y1="425.1094" y2="948.8906"/><line style="stroke:#181818;stroke-width:1;" x1="881.7354" x2="711.9767" y1="948.8906" y2="948.8906"/><polygon fill="#181818" points="721.9767,944.8906,711.9767,948.8906,721.9767,952.8906,717.9767,948.8906" style="stroke:#181818;stroke-width:1;"/><line style="stroke:#181818;stroke-width:1;" x1="699.9767" x2="699.9767" y1="337.1406" y2="357.1406"/><polygon fill="#181818" points="695.9767,347.1406,699.9767,357.1406,703.9767,347.1406,699.9767,351.1406" style="stroke:#181818;stroke-width:1;"/><line style="stroke:#181818;stroke-width:1;" x1="699.9767" x2="699.9767" y1="960.8906" y2="980.8906"/><polygon fill="#181818" points="695.9767,970.8906,699.9767,980.8906,703.9767,970.8906,699.9767,974.8906" style="stroke:#181818;stroke-width:1;"/><!--SRC=[RL7DRXCn4BxlKynn5mcq5C8X4QtQWg2NDY98d2VUIMB9QvknDoJSU1mEEQ0-01BxOentjqtIr2VB_lvclgYZ8PYHQiWgZKgtznOgWYaxHG5hJJQwz71Juv9ibeM87BDiV8q-DemC2yQQ1144z8Fc2kj9-dPsJHmr0m85XGQJo99re339nfVUQ2NaJzY4eD5UcOOX7sr6HI9_e4ZgCShSiQX3VetMRk5T-VBrgEnWLqr86if9HBOk06qYfSiaqml8__tzZDlzxqK1SKKMybcxApAGCvwHIJxEYWgPHoZKk7Ki3WdKAxM_c13EuQmiorEXJkpIizle-Y2GZEwTQNTBbyBbv8CsphulNvLdBponBWQBlStq0Puqu2sisz-oGodYUS_Eznkodn87JohgDOcfXDoyASl9CUxZ9ZAIf9F-4ApZ6et-YHKUfEY0tVQbPV1eP1TKIJ-HuClT3Mp1jFTBQGvMxMxEEf6FkFlQUnliAeTyY5ISm6kFtAyC8jNUO9IgAocZCw_wA9M3lCQeLby7IF4qyzqyafNXri9YYHcKOzgRaGa4-QqhdauQkfZxoWuejjABtkMK_GmJF7rlgFqpI0pqO-hura6WXwdw5Kso0HgYy_y1]--></g></svg>